<svg width="215" height="72" viewBox="0 0 215 72" fill="none" xmlns="http://www.w3.org/2000/svg">
<path d="M25.9383 12.5821C25.348 12.8606 24.5297 13.3122 23.0409 14.1943L20.966 15.4182L20.2405 16.1356L19.5151 16.8489L19.5911 17.254C19.6332 17.4735 19.6754 17.6761 19.6923 17.7014C19.709 17.7309 20.2448 17.4229 21.0757 16.9164L22.4378 16.085L23.2265 16.0301L24.0194 15.9753L24.4622 15.7558C24.8967 15.5406 24.9262 15.5321 26.0017 15.338C26.6048 15.2325 27.1235 15.1438 27.153 15.1438C27.1868 15.1438 27.4608 14.9497 27.7646 14.7092C28.0724 14.4686 28.7176 13.9917 29.1985 13.6498L30.08 13.0294L30.5819 12.8944C30.8561 12.8184 31.0838 12.7509 31.0838 12.7382C31.0838 12.7256 30.9319 12.6243 30.7506 12.5145L30.4173 12.3162L29.4093 12.2529C28.857 12.2191 28.0344 12.1896 27.5833 12.1938H26.7609L25.9383 12.5821Z" fill="white"/>
<path d="M23.218 13.0167C21.2105 13.5612 18.8951 14.6205 16.8707 15.9119C13.9901 17.752 11.3331 20.2631 9.22012 23.1414C8.94599 23.517 8.91646 23.5381 9.74731 22.7701C10.0172 22.5211 10.2492 22.3185 10.2576 22.3185C10.2703 22.3185 10.3167 22.4408 10.3588 22.5927C10.401 22.7446 10.4474 22.8628 10.4601 22.8587C10.4727 22.8502 10.7933 22.6393 11.1728 22.3818L11.8603 21.9176L11.7 21.7824C11.6157 21.7065 11.5524 21.639 11.5608 21.6305C11.5693 21.6264 11.8266 21.3815 12.126 21.0862L12.6743 20.5543L13.1171 20.5797L13.5557 20.6091L12.9062 21.1282C12.5477 21.4153 12.2483 21.6686 12.2399 21.6854C12.2314 21.7065 12.3411 21.9513 12.4845 22.234L12.746 22.7405L12.8599 22.5842C12.9231 22.4957 13.1382 22.175 13.3406 21.871C13.6865 21.3519 13.7076 21.3097 13.7076 21.0903L13.7118 20.8625L14.4583 20.0774L15.2048 19.2967L15.4578 18.6298L15.7109 17.9672L16.5966 17.2329C17.4738 16.507 17.4907 16.4943 18.5155 15.9415C19.6163 15.3464 23.7579 12.907 23.6567 12.9112C23.6229 12.9112 23.429 12.9577 23.218 13.0167Z" fill="white"/>
<path d="M41.632 14.0295C42.0243 14.5021 42.0413 14.5275 42.0708 14.7849C42.0875 14.9242 42.1088 15.0677 42.117 15.1014C42.1298 15.1478 42.0328 15.228 41.822 15.3547C41.5309 15.5277 41.5057 15.553 41.4761 15.7092C41.4634 15.8062 41.4423 15.8949 41.4338 15.9117C41.4212 15.9286 41.2695 15.8738 41.088 15.7893C40.9108 15.7092 40.7169 15.6248 40.662 15.6037L40.5609 15.5615L40.6368 15.6796C40.679 15.7471 40.776 15.8906 40.8518 16.0088C40.9278 16.1228 40.9994 16.3042 41.0163 16.4098C41.0289 16.5153 41.0543 16.6292 41.0628 16.6714C41.0754 16.7178 41.0037 16.8022 40.8307 16.9331C40.6916 17.0386 40.5693 17.1272 40.5524 17.1272C40.5144 17.1272 39.8143 16.5701 39.8143 16.5406C39.8143 16.5279 40.0127 16.5195 40.2571 16.5279C40.7506 16.5448 40.7421 16.549 40.6579 16.2409C40.6199 16.0932 40.5945 16.0806 40.0717 15.8695C39.595 15.6754 39.4558 15.6416 38.9161 15.5699C38.4016 15.4981 38.2665 15.4644 38.0768 15.3589C37.9038 15.2618 37.7225 15.2112 37.2922 15.1394L36.7271 15.0466L36.1535 15.3251C35.833 15.4813 35.4913 15.629 35.3902 15.6543L35.2045 15.6965L35.2299 15.9497C35.251 16.203 35.251 16.2072 34.9727 16.6714C34.7786 17.0006 34.5424 17.3045 34.1924 17.6927C33.9141 17.9966 33.6568 18.2583 33.6188 18.2752C33.5808 18.292 33.4458 18.3047 33.3194 18.3047L33.0832 18.3089L33.1127 18.6761C33.1379 18.9925 33.1759 19.1192 33.3531 19.5286C33.4712 19.7945 33.5893 20.0224 33.623 20.0394C33.6525 20.0561 33.779 20.0814 33.8971 20.0984C34.1164 20.128 34.1249 20.1236 34.4032 19.9084L34.69 19.6931L34.9811 19.7186C35.1413 19.7353 35.2847 19.7565 35.3059 19.7649C35.3606 19.803 35.7486 20.4993 35.9257 20.8834C36.0608 21.1746 36.124 21.2673 36.2675 21.3602L36.4403 21.4784L36.858 21.1365L37.2711 20.7948L37.1953 20.4148L37.1152 20.0309L37.3682 19.6805L37.617 19.326L37.2501 19.0643L36.879 18.8027L36.782 18.4608C36.7271 18.2709 36.6765 18.0895 36.6639 18.0473C36.6513 18.0008 36.7355 17.9164 36.9676 17.7603L37.2965 17.5408L37.2711 17.1821L37.2501 16.8191L37.4693 16.8487C37.5874 16.8613 37.7561 16.874 37.8447 16.874C37.9797 16.874 38.0093 16.8909 38.0472 16.9879C38.0894 17.0935 38.0724 17.1483 37.8996 17.4691C37.6465 17.9502 37.6465 18.0641 37.8953 18.5621C38.0008 18.7732 38.1104 18.942 38.14 18.942C38.2919 18.942 38.4984 19.0348 38.5197 19.1107C38.5575 19.2585 38.8232 19.2206 39.4137 18.9758L39.9493 18.7605L40.2235 18.8955L40.5018 19.0306L40.4048 19.1362C40.3121 19.2332 40.2782 19.2374 39.8522 19.2374H39.3968L39.283 19.3851L39.1733 19.5329L39.3462 19.8452C39.4432 20.0183 39.5192 20.1743 39.5192 20.1869C39.5192 20.2081 39.4643 20.2039 39.0214 20.1447L38.836 20.1195L38.8655 20.8496L38.895 21.5796L37.9081 21.8667L36.9211 22.1538L36.6808 22.0608C36.4531 21.9722 36.4318 21.9722 36.183 22.0356L35.9216 22.103L35.6728 21.9342C35.5378 21.8414 35.4281 21.7611 35.4281 21.757C35.4281 21.7527 35.3691 21.4236 35.3016 21.0312C35.2341 20.6344 35.175 20.3051 35.175 20.2966C35.175 20.284 34.6859 20.7104 34.4032 20.9678C34.3316 21.0353 34.34 21.0606 34.5636 21.5755C34.69 21.8667 34.7955 22.1283 34.7955 22.1453C34.7955 22.1664 34.4581 22.2465 34.0489 22.3268L33.3025 22.4661L33.273 22.6136C33.2561 22.6939 33.2308 22.8332 33.2181 22.9177C33.1929 23.0652 33.159 23.0907 32.6024 23.4156C32.0583 23.7406 31.9951 23.7913 31.6323 24.2007L31.2485 24.6394H30.9533C30.6708 24.6394 30.6539 24.6438 30.4767 24.8083L30.2911 24.9814L29.6839 24.9518L29.0807 24.9222L29.0933 25.1755L29.1103 25.4286L29.5784 25.6145L30.0508 25.8001L30.0382 25.9479C30.0297 26.0744 30.0634 26.1335 30.2533 26.3445L30.481 26.5978L30.3334 27.4418C30.2574 27.9104 30.1858 28.2943 30.1773 28.3028C30.1647 28.3154 28.8193 28.1339 27.5793 27.9526C27.1744 27.8975 27.1659 27.8975 26.7906 28.0074C26.5797 28.0706 26.3985 28.1339 26.3859 28.1424C26.3774 28.155 26.3859 28.4673 26.4111 28.8388L26.449 29.514L26.1707 30.164L25.8965 30.8139L25.9725 31.4934L26.0442 32.1729L26.3394 32.1602L26.6347 32.1476L26.9931 32.5653C27.3854 33.0295 27.5246 33.1055 27.6848 32.9579C27.7395 32.9113 28.2034 32.7594 28.8615 32.5738L29.9496 32.2658L30.3586 31.9535C30.5822 31.7805 30.7804 31.6074 30.793 31.5694C30.8056 31.5313 30.8395 31.2781 30.869 31.0122C30.9196 30.5438 30.9322 30.5142 31.1009 30.2779C31.2696 30.0459 31.2908 30.0289 31.7168 29.8685C31.9613 29.7799 32.2439 29.6744 32.3451 29.6365L32.5307 29.5647L32.5053 29.1089L32.4758 28.6488L32.7415 28.48C32.885 28.3872 33.0283 28.3113 33.0622 28.3113C33.0917 28.3113 33.332 28.3787 33.5978 28.4632L34.0784 28.6109L34.6943 28.2142L35.31 27.8174L35.6264 27.9356C35.9976 28.0706 35.9722 28.0538 36.744 28.8893C37.3007 29.4929 37.3512 29.5394 37.617 29.6406C37.7689 29.6998 38.161 29.9233 38.4817 30.1386L39.0678 30.5269L39.2914 30.9151L39.5149 31.3077L39.1944 31.523C38.8738 31.7424 38.8738 31.7424 38.4268 31.7761C38.1821 31.7931 37.9038 31.8099 37.8067 31.8099C37.6465 31.8142 37.6339 31.8225 37.5874 31.9703C37.5622 32.0547 37.5453 32.1307 37.5538 32.1391C37.5579 32.1476 37.8953 32.2741 38.3002 32.4219C38.7051 32.5738 39.0637 32.7046 39.1015 32.7215C39.1606 32.7427 39.1649 32.7004 39.148 32.3206L39.1269 31.8986H39.3125H39.4981L39.7426 31.4342L39.9914 30.97L39.8186 30.7758C39.6245 30.5565 39.616 30.5058 39.7215 30.3033L39.7975 30.1682L39.9619 30.2905C40.0548 30.3538 40.2024 30.4215 40.291 30.4383C40.4681 30.472 40.4681 30.472 40.3626 30.1893C40.3416 30.1344 40.1223 29.991 39.7932 29.8136C39.3505 29.5773 39.2491 29.5013 39.2029 29.3916C39.148 29.2608 39.131 29.2523 38.7852 29.2016L38.4226 29.1468L38.1315 28.8007C37.9713 28.6109 37.7099 28.3409 37.5495 28.1972C37.3007 27.9735 37.2416 27.8975 37.1109 27.5811L36.9591 27.2224L37.1615 27.1338L37.3682 27.0494L37.4315 27.197C37.4906 27.3362 37.4989 27.3406 37.7266 27.3406C37.9628 27.3406 37.9671 27.3447 38.1905 27.5896C38.3846 27.7963 38.6165 27.9526 39.5824 28.5222L40.7421 29.206V29.5773C40.7421 29.9403 40.7465 29.9529 40.9404 30.2948C41.1175 30.6072 41.1681 30.662 41.4634 30.8561L41.7881 31.0755L42.0834 31.6706C42.4166 32.3418 42.3281 32.2741 42.9733 32.3459L43.2431 32.3755L43.2179 32.0336L43.1926 31.6917L43.3823 31.4512L43.5679 31.2063L43.3276 31.0671C43.1926 30.9911 43.0703 30.9236 43.0575 30.9195C43.0197 30.9025 42.5938 30.0415 42.6233 30.0415C42.6359 30.0415 42.695 30.0796 42.754 30.126C42.8131 30.1723 42.9101 30.2104 42.9691 30.2104C43.0745 30.2104 43.0745 30.2104 43.0449 29.9107L43.0154 29.611L43.239 29.6365C43.3612 29.6491 43.5975 29.6702 43.762 29.687L44.0655 29.7124L44.4578 30.5734L44.8543 31.4342L45.3898 31.755C45.7316 31.9576 46.014 32.0969 46.1701 32.1306C46.4864 32.2066 46.478 32.2108 46.478 32.0928C46.478 32.0377 46.4908 31.9324 46.5034 31.8606L46.5329 31.7254L46.8112 31.7509C47.0474 31.7761 47.1992 31.755 47.8192 31.6074C48.2198 31.5104 48.5699 31.4342 48.5995 31.4342C48.629 31.4342 48.7091 31.6116 48.7851 31.8436C48.9158 32.2447 48.9199 32.2952 48.9664 33.4178C49.0128 34.5489 49.0128 34.5869 48.9284 34.7811C48.8819 34.8908 48.8272 34.9794 48.8103 34.9837C48.7934 34.9837 48.5067 35.009 48.182 35.0385L47.5873 35.0891L47.2035 35.3931L46.8238 35.6969L45.47 35.5324L44.112 35.3676L43.8716 35.2072C43.6776 35.0723 43.5679 35.0342 43.3022 34.992L42.9774 34.9456L42.5558 35.2242C42.1846 35.4732 42.1381 35.5196 42.155 35.6125C42.1635 35.6715 42.1761 35.8867 42.1846 36.0937L42.1972 36.4735L41.9442 36.5747L41.6911 36.6761L41.2271 36.5873C40.9742 36.5409 40.6536 36.4902 40.5187 36.4735C40.2782 36.4523 40.2571 36.4354 39.865 36.0852C39.6373 35.8826 39.4137 35.6843 39.3631 35.6421C39.2956 35.5829 39.0848 35.5407 38.4732 35.4647C37.6845 35.3676 37.6676 35.3635 37.1869 35.1398C36.706 34.9204 36.6975 34.916 36.647 34.7347C36.5964 34.5574 36.5964 34.5532 36.8367 34.1987L37.0729 33.84L36.879 33.5488L36.6891 33.2576L36.7946 33.0423C36.8536 32.9283 36.9042 32.8143 36.9042 32.7975C36.9042 32.7215 36.4108 32.4978 36.1745 32.4682C35.9553 32.443 35.9216 32.4514 35.8035 32.5485C35.6769 32.6582 35.6643 32.6582 34.9642 32.6582C34.2979 32.6582 34.2345 32.6667 34.0152 32.7594L33.7834 32.865L33.3362 32.7427L32.8891 32.6245L31.7463 33.0254C31.1137 33.2448 30.3419 33.5149 30.0297 33.6289L29.4603 33.8315L29.2494 33.7133C29.0681 33.6119 28.9626 33.5867 28.4692 33.5445C27.8704 33.4938 27.8198 33.4728 27.7649 33.2576C27.748 33.1773 27.7143 33.1647 27.5202 33.1647H27.2968L27.2673 33.3418C27.2504 33.4432 27.2208 33.5529 27.2039 33.5867C27.1828 33.6204 26.6093 34.1902 25.926 34.8486L24.6818 36.0471L24.6523 36.4565L24.6271 36.8659L24.0451 37.4441L23.463 38.0265L22.9611 38.1489C22.6743 38.2207 22.434 38.3008 22.3918 38.343C22.3539 38.3852 21.8604 39.0351 21.2909 39.7907C20.3884 40.9893 20.2113 41.2468 19.895 41.8544C19.6926 42.2342 19.5281 42.5509 19.5281 42.5635C19.5281 42.5718 19.604 42.69 19.6968 42.8251L19.8613 43.0741L19.6926 44.4374L19.5196 45.8046L19.2371 46.1424C19.0811 46.328 18.9419 46.5011 18.925 46.5307C18.908 46.5559 18.9755 46.7753 19.0767 47.016L19.2582 47.4506L19.2033 47.8219L19.1486 48.1934L20.1143 49.2486L21.076 50.3037L21.2994 50.9325C21.4218 51.2785 21.5356 51.5782 21.5482 51.5993C21.561 51.6204 22.2863 52.1647 23.1552 52.8148C24.4246 53.7601 24.762 53.9923 24.8633 53.9879C24.935 53.9879 25.1879 53.9331 25.4326 53.8656L25.8755 53.7433L27.1618 53.9457C27.8704 54.0597 28.4861 54.1483 28.5326 54.1483C28.5788 54.1483 29.1398 53.9879 29.7766 53.7896L30.9365 53.431L31.9951 53.4014L33.0537 53.3718L33.3657 53.9457C33.6062 54.389 33.6989 54.5198 33.7621 54.5198C33.8086 54.5198 34.2261 54.4733 34.6859 54.4184L35.5252 54.3214L35.9933 54.7013C36.2505 54.9081 36.4657 55.0853 36.4741 55.0896C36.4826 55.0979 36.3645 55.3469 36.2169 55.6424C36.0692 55.9421 35.8667 56.419 35.7655 56.7017L35.5884 57.2123L35.7866 57.5753L35.9848 57.9425L36.6513 58.4067C37.0182 58.66 37.3345 58.892 37.3597 58.9216C37.3808 58.9469 37.5158 59.2635 37.655 59.6181L37.9081 60.2636L37.7857 60.4072L37.6634 60.5465L37.8532 60.9011L38.0429 61.2597L37.2375 62.0911L36.4318 62.9225L36.4741 63.2518C36.5121 63.5767 36.5204 63.5935 36.8326 64.0072L37.153 64.4293L37.1826 64.7712L37.2121 65.1129L37.5032 65.2733L37.7941 65.4378L38.2455 65.3366C39.3082 65.1044 40.8223 64.6108 41.9232 64.1296C43.0703 63.6316 44.5464 62.8296 45.5713 62.146C46.3347 61.6354 46.9462 61.1753 46.8998 61.1457C46.8744 61.1289 46.8577 61.036 46.8661 60.9305L46.8787 60.749L48.4349 59.5125C49.2911 58.833 50.008 58.2548 50.025 58.221C50.046 58.1914 50.3413 57.3474 50.6871 56.3515L51.3198 54.5409L53.0574 51.7597L54.7992 48.9741L55.4486 47.2735L56.094 45.5683L56.0856 44.7201L56.073 43.8676L55.3643 44.7412C54.9764 45.2181 54.639 45.6233 54.6136 45.6359C54.5926 45.6527 54.4618 45.6527 54.3268 45.6359L54.078 45.6063L54.0274 45.2644C53.9684 44.8594 53.9263 44.7876 53.5719 44.4163L53.3062 44.1418L53.0068 44.1292L52.7073 44.1166L52.5724 43.648C52.4458 43.1964 52.4289 43.167 52.0579 42.6943L51.6782 42.209L51.6065 41.6433C51.5644 41.331 51.5138 41.0272 51.4969 40.9638C51.4758 40.9005 51.2987 40.6559 51.1005 40.4152C50.7926 40.048 50.6281 39.7823 50.025 38.6723L49.3081 37.3638L49.599 37.2163C49.7592 37.1403 49.8984 37.0811 49.9069 37.0896C49.9153 37.1022 50.2358 37.5286 50.6196 38.0392C51.0456 38.609 51.442 39.0901 51.6487 39.2843L51.9819 39.6007L52.1465 40.2339L52.3108 40.8668L53.0068 41.711C53.3905 42.1752 53.7279 42.5846 53.7574 42.6225C53.7912 42.6606 53.8713 43.0741 53.943 43.6143C54.116 44.8635 54.0949 44.7791 54.2508 44.7623C54.3774 44.7495 54.4323 44.6652 55.3559 43.1459L56.3302 41.5421L56.7393 40.3392L57.1441 39.1365L57.1906 37.786C57.2117 37.0432 57.2327 36.3764 57.2327 36.3004C57.2327 36.1779 57.1989 36.14 56.9205 35.9544C56.617 35.7476 56.6086 35.7348 56.4735 35.3931C56.2712 34.8823 56.2712 34.8866 56.1783 34.9371C56.1025 34.9794 56.094 35.0301 56.094 35.5914V36.199L55.8452 36.465L55.5962 36.7309L55.5541 36.562C55.5289 36.4691 55.4781 36.2497 55.4403 36.0767L55.3728 35.7602L54.9469 35.4647C54.7148 35.3043 54.4998 35.1313 54.466 35.0849C54.4365 35.0385 54.3058 34.7811 54.1792 34.5067L53.9515 34.0172L54.1623 33.882C54.4154 33.7301 54.3268 33.6753 54.8835 34.3295L55.2463 34.7558L55.5076 34.7811C55.9125 34.8274 55.9043 34.8274 56.0096 34.5996C56.0645 34.4814 56.1151 34.3885 56.1235 34.3885C56.1361 34.3885 56.2584 34.4772 56.4019 34.5869C56.5452 34.6925 56.6843 34.7979 56.7097 34.8148C56.7351 34.8359 56.8953 34.6503 57.1272 34.321C57.3339 34.0341 57.5152 33.8104 57.5364 33.8315C57.5532 33.8483 57.6628 34.0805 57.7809 34.3464C57.8949 34.6122 57.9919 34.8063 57.9919 34.7811C57.9919 34.6797 57.6967 33.2321 57.549 32.633C56.558 28.5095 54.7233 24.8884 52.041 21.7485C51.4843 21.0986 49.8899 19.499 49.2616 18.9673C47.2921 17.2876 45.3223 15.9455 42.9564 14.6794C41.7545 14.0337 41.5519 13.9366 41.632 14.0295ZM50.219 25.2473C50.472 25.3022 50.5015 25.3233 50.978 25.7832C51.2733 26.0617 51.653 26.4922 51.9144 26.8298C52.3529 27.4081 53.5214 29.1215 53.5214 29.1934C53.5214 29.2145 53.4328 29.303 53.3273 29.3916C53.1332 29.5477 53.1291 29.5477 52.935 29.4972C52.4205 29.362 52.3024 29.3157 52.2813 29.2482C52.2687 29.2101 52.2012 28.8726 52.1295 28.5011C52.0579 28.1298 51.986 27.8174 51.965 27.8048C51.9482 27.7922 51.6276 27.5432 51.2566 27.2477L50.5816 26.7116L50.2486 25.9858C50.0671 25.5849 49.9112 25.243 49.9027 25.2219C49.8817 25.1796 49.9027 25.1796 50.219 25.2473ZM45.1621 26.011C45.3814 26.0406 45.3857 26.045 45.7695 26.4881C45.9845 26.7371 46.1616 26.948 46.1701 26.9565C46.1786 26.9691 46.3347 26.8298 46.5159 26.6485L46.8449 26.3192L47.6125 26.6357C48.2156 26.889 48.4477 27.0072 48.6922 27.197C48.8652 27.3279 49.0296 27.4629 49.0591 27.4966C49.0971 27.5432 49.2278 28.2268 49.2026 28.2564C49.1982 28.2606 48.8819 28.2986 48.4983 28.345L47.8023 28.4251L47.1529 28.3069L46.5034 28.1887L46.0859 28.6277C45.7568 28.9781 45.6514 29.0667 45.5798 29.0497C45.529 29.0414 45.3182 29.0203 45.1158 29.0075L44.7446 28.9781L44.4704 28.7248C44.3061 28.5687 44.2006 28.4379 44.2006 28.3787C44.2006 28.3324 44.2891 27.7626 44.3988 27.1168L44.6013 25.9394L44.77 25.9647C44.8627 25.9773 45.0399 25.9984 45.1621 26.011Z" fill="white"/>
<path d="M25.9764 16.414C25.8288 16.5322 25.6896 16.6419 25.6727 16.6588C25.656 16.6757 25.7571 16.8361 25.8963 17.0133L26.1494 17.3383H26.3729C26.491 17.3341 26.9043 17.2623 27.2838 17.1779L27.9755 17.0217L28.0389 16.7938L28.1021 16.5659L27.9588 16.4478L27.8153 16.3296L27.1195 16.3254C26.5711 16.3254 26.4024 16.3127 26.3307 16.2621C26.2506 16.203 26.2252 16.2157 25.9764 16.414Z" fill="white"/>
<path d="M29.5065 20.0562L29.2114 20.318L29.3506 20.6133C29.4813 20.8919 29.4854 20.9213 29.4602 21.2506L29.4307 21.5966L29.8271 21.6092C30.1476 21.6177 30.2194 21.6347 30.211 21.6852C30.211 21.7189 30.173 21.9089 30.135 22.1072L30.0633 22.4661L29.6035 22.7825C29.1607 23.0864 29.1439 23.1033 29.1691 23.2257C29.2071 23.403 29.2114 23.4072 29.3969 23.462C29.4898 23.4916 29.5656 23.5295 29.5656 23.5506C29.5656 23.5676 29.4012 23.6899 29.203 23.8207C28.8656 24.0359 28.8402 24.0614 28.9034 24.1247C28.9668 24.1837 29.0595 24.1752 30.038 24.0148C30.6241 23.9136 31.1471 23.825 31.1977 23.8165C31.2526 23.8039 31.4255 23.6816 31.59 23.5423L31.8811 23.289L31.6069 22.9092C31.4129 22.6432 31.3117 22.4576 31.2652 22.2931C31.2231 22.1327 31.0924 21.8878 30.8519 21.5248L30.4978 20.9931L30.523 20.5415L30.5484 20.0899L30.2194 19.938C30.038 19.8535 29.8693 19.7861 29.8441 19.7861C29.8187 19.7861 29.6669 19.9086 29.5065 20.0562Z" fill="white"/>
<path d="M28.0939 21.5163C27.9631 21.6809 27.942 21.6893 27.7607 21.6809L27.5625 21.6682L27.4105 21.9468L27.2588 22.2254L27.4739 22.3055C27.6511 22.3688 27.689 22.3984 27.689 22.4828C27.689 22.5882 27.6637 22.6052 27.3052 22.6938C27.145 22.736 27.1322 22.7529 27.0901 22.9386C27.0647 23.0526 27.048 23.1454 27.0564 23.1538C27.0606 23.1623 27.3473 23.1286 27.6932 23.082C28.0349 23.0315 28.3679 22.9934 28.4313 22.9934C28.4986 22.9934 28.562 22.9723 28.5789 22.9427C28.6591 22.8163 29.0049 21.5881 28.9838 21.4952C28.9711 21.4151 28.9415 21.3897 28.8488 21.3897C28.7854 21.3897 28.6211 21.377 28.486 21.3644L28.2372 21.3391L28.0939 21.5163Z" fill="white"/>
<path d="M35.5209 28.8935C35.3437 28.961 35.3353 28.9695 35.3605 29.1129C35.3732 29.1932 35.3858 29.2985 35.3858 29.3492C35.3858 29.3999 35.4364 29.5096 35.4955 29.5982L35.6051 29.7628L35.4449 29.8938L35.2847 30.0287L35.3353 30.6364C35.3648 30.9657 35.3943 31.2484 35.4028 31.2569C35.4154 31.2653 35.5545 31.2273 35.7191 31.1768L36.0185 31.0797V30.5859V30.0962L35.8455 29.8979L35.6726 29.7038L35.7612 29.6278C35.8455 29.5603 35.8498 29.5308 35.8244 29.1847C35.8077 28.961 35.7781 28.8175 35.7486 28.8217C35.7232 28.8217 35.6177 28.8554 35.5209 28.8935Z" fill="white"/>
<path d="M4.07478 39.6641C3.99888 40.0356 4.15491 42.1711 4.3447 43.4203C5.02373 47.8348 7.3054 52.7896 10.5023 56.7988C10.9747 57.3896 11.388 57.875 11.388 57.8413C11.388 57.8286 11.2066 57.3855 10.9873 56.8495C10.768 56.3134 10.5866 55.8662 10.5866 55.8535C10.5866 55.845 10.7258 55.672 10.8987 55.4694L11.215 55.1022L10.8144 54.2961C10.4306 53.5196 10.38 53.4436 9.62083 52.4518C8.89541 51.5107 8.76467 51.3588 8.13627 50.7805L7.44458 50.1476L6.63903 48.6072C6.20042 47.7629 5.81663 46.9738 5.7871 46.8599C5.29786 44.8172 4.94781 43.4667 4.65259 42.4496C4.30254 41.2552 4.28567 41.1708 4.19709 40.3605C4.12962 39.7274 4.09588 39.5544 4.07478 39.6641Z" fill="white"/>
<path d="M20.0513 30.0142C20.6194 30.8271 25.631 29.0064 27.6758 31.9331C29.7206 34.8599 29.6218 30.5674 29.6218 30.5674C27.5569 27.6022 30.9982 23.5434 30.4303 22.7305C29.8624 21.9174 19.4833 29.2013 20.0513 30.0142Z" fill="#A1C6FF"/>
<path d="M29.6218 30.5674L27.6758 31.9331L34.0372 41.0386L35.9833 39.6729L29.6218 30.5674Z" fill="#A1C6FF"/>
<path fill-rule="evenodd" clip-rule="evenodd" d="M12.115 16.6829C11.6046 17.0411 11.4805 17.7463 11.8379 18.2579L20.0514 30.0142L30.4303 22.7303L22.2169 10.9742C21.8594 10.4625 21.1559 10.3382 20.6455 10.6964L12.115 16.6829ZM14.5809 17.3756C14.4108 17.495 14.3694 17.7301 14.4886 17.9006L21.5546 28.0144C21.6736 28.185 21.9081 28.2265 22.0783 28.107L22.7595 27.629C22.9297 27.5097 22.9711 27.2746 22.8518 27.1041L15.7859 16.9901C15.6668 16.8196 15.4322 16.7781 15.2621 16.8976L14.5809 17.3756ZM19.6779 14.2587C19.5589 14.0882 19.6003 13.8531 19.7705 13.7337L20.4516 13.2557C20.6216 13.1363 20.8563 13.1777 20.9754 13.3483L28.0413 23.4622C28.1606 23.6326 28.1192 23.8678 27.949 23.9871L27.2678 24.4651C27.0976 24.5846 26.8631 24.5432 26.7439 24.3726L19.6779 14.2587ZM17.1756 15.5547C17.0055 15.6741 16.9641 15.9091 17.0833 16.0797L24.1492 26.1935C24.2683 26.3641 24.5028 26.4055 24.673 26.286L25.3541 25.8081C25.5243 25.6887 25.5657 25.4537 25.4467 25.2831L18.3806 15.1692C18.2615 14.9987 18.027 14.9572 17.8568 15.0766L17.1756 15.5547Z" fill="#A1C6FF"/>
<path fill-rule="evenodd" clip-rule="evenodd" d="M33.5014 40.4452C32.6506 41.0423 32.4437 42.2174 33.0395 43.0703L42.0146 55.9169C42.6104 56.7696 43.783 56.9769 44.6337 56.3798L46.7423 54.9C47.593 54.3031 47.7999 53.1277 47.2041 52.275L38.229 39.4283C37.6332 38.5756 36.4607 38.3685 35.6097 38.9656L33.5014 40.4452ZM44.3249 53.6888C44.8622 53.3117 44.9927 52.569 44.6164 52.0304C44.2399 51.4915 43.4992 51.3605 42.9617 51.7377C42.4244 52.1146 42.2939 52.8572 42.6702 53.3959C43.0467 53.9348 43.7875 54.066 44.3249 53.6888Z" fill="#A1C6FF"/>
<path d="M14.0815 55.6356C13.4859 55.2178 13.3412 54.3951 13.7582 53.7981L43.1089 11.7869L46.0987 13.8851L16.748 55.8963C16.331 56.4932 15.5101 56.6382 14.9146 56.2203L14.0815 55.6356Z" fill="#A1C6FF"/>
<path d="M42.944 11.787L52.3806 18.4094C54.5076 19.902 55.0246 22.8402 53.5351 24.9719L36.8087 48.9135L23.521 39.5883L42.944 11.787Z" fill="#A1C6FF"/>
<path d="M26.6755 41.6863L25.2188 43.7715C26.3911 42.4025 27.0766 42.2589 28.3364 42.8521L26.6755 41.6863Z" fill="#A1C6FF"/>
<path fill-rule="evenodd" clip-rule="evenodd" d="M52.3444 20.5345L34.7119 45.7726L36.7052 47.1715L51.9749 25.3152C52.9924 23.8586 53.0735 22.0258 52.3444 20.5345Z" fill="white"/>
<path d="M15.4691 54.5381C15.7443 54.7312 16.1305 54.6544 16.3316 54.3665C16.5328 54.0786 16.4727 53.6886 16.1975 53.4955C15.9223 53.3024 15.5362 53.3792 15.335 53.6671C15.1339 53.955 15.1939 54.3449 15.4691 54.5381Z" fill="#181929"/>
<path d="M20.5678 47.24C20.843 47.4332 21.2291 47.3563 21.4303 47.0685C21.6314 46.7806 21.5713 46.3906 21.2961 46.1975C21.0209 46.0044 20.6348 46.0812 20.4337 46.3691C20.2325 46.657 20.2926 47.0469 20.5678 47.24Z" fill="#181929"/>
<path d="M18.8681 49.6728C19.1433 49.8659 19.5294 49.7891 19.7306 49.5012C19.9317 49.2133 19.8716 48.8234 19.5964 48.6302C19.3212 48.4371 18.9351 48.5139 18.734 48.8018C18.5328 49.0897 18.5929 49.4796 18.8681 49.6728Z" fill="#181929"/>
<path d="M17.1684 52.1053C17.4436 52.2984 17.8297 52.2216 18.0308 51.9337C18.232 51.6458 18.1719 51.2559 17.8967 51.0628C17.6215 50.8696 17.2354 50.9465 17.0343 51.2344C16.8331 51.5222 16.8932 51.9122 17.1684 52.1053Z" fill="#181929"/>
<path d="M80.1 36.788V46.148H84.852V36.788H80.1ZM92.196 36.788V46.148H96.984V36.788H92.196ZM73.476 45.464V49.352H103.644V45.464H73.476ZM88.524 21.488C81.324 21.488 76.068 25.016 76.068 30.452C76.068 35.888 81.324 39.38 88.524 39.38C95.688 39.38 100.98 35.888 100.98 30.452C100.98 25.016 95.688 21.488 88.524 21.488ZM88.524 25.232C93.168 25.232 96.264 27.14 96.264 30.452C96.264 33.728 93.168 35.672 88.524 35.672C83.88 35.672 80.784 33.728 80.784 30.452C80.784 27.14 83.88 25.232 88.524 25.232ZM132.765 19.832V53.276H137.553V19.832H132.765ZM111.597 41.612V45.5H114.549C120.633 45.5 125.529 45.32 130.929 44.348L130.461 40.496C125.169 41.396 120.453 41.612 114.549 41.612H111.597ZM111.561 22.676V26.492H122.397V31.784H111.597V43.052H116.457V35.564H127.293V22.676H111.561ZM146.19 45.464V49.352H176.358V45.464H146.19ZM158.862 38.084V46.544H163.65V38.084H158.862ZM158.718 24.224V25.412C158.718 30.02 154.758 34.628 147.342 35.78L149.214 39.56C157.71 38.012 162.75 32.432 162.75 25.412V24.224H158.718ZM159.69 24.224V25.412C159.69 32.432 164.802 37.868 173.442 39.38L175.278 35.6C167.682 34.484 163.722 30.02 163.722 25.412V24.224H159.69ZM148.674 22.388V26.204H173.766V22.388H148.674ZM205.48 19.832V53.276H210.268V19.832H205.48ZM184.312 41.612V45.5H187.264C193.348 45.5 198.244 45.32 203.644 44.348L203.176 40.496C197.884 41.396 193.168 41.612 187.264 41.612H184.312ZM184.276 22.676V26.492H195.112V31.784H184.312V43.052H189.172V35.564H200.008V22.676H184.276Z" fill="#A1C6FF"/>
</svg>
